<?xml version="1.0" encoding="utf-8"?>
<!-- Generator: Adobe Illustrator 23.0.3, SVG Export Plug-In . SVG Version: 6.00 Build 0)  -->
<svg version="1.1" id="Capa_1" xmlns="http://www.w3.org/2000/svg" xmlns:xlink="http://www.w3.org/1999/xlink" x="0px" y="0px"
	 viewBox="0 0 1080 271.15" style="enable-background:new 0 0 1080 271.15;" xml:space="preserve">
<g>
	<path d="M38.93,222.33c-3.75,6.67-7.5,13.34-11.57,20.58c-6.59-9.64-7.54-20.25-5.29-31.1c2.18-10.51,5.33-20.82,8.25-31.92
		c-4.04,1.4-8.04,2.79-13,4.51c5.77-21.24,15.25-39.96,27.04-58.09c-6.68-2.83-12.83-6.13-15.39-13.85
		c15.83-3.81,29.13-11.81,40.99-22.72c-3.35-2.24-6.94-3.87-9.45-6.52c-2.53-2.68-3.99-6.38-6.48-10.55
		c3.15-0.35,5.01-0.6,6.86-0.75c1.93-0.16,3.86-0.21,7.21-0.39c-10.48-21.29-0.46-38.77,9.16-56.86
		c14.08,5.81,27.83,11.3,41.41,17.2c4.39,1.91,8.32,1.99,12.76,0.51c9.72-3.25,19.59-6.02,29.31-9.29c3.82-1.28,7.31-1.4,10.54,0.97
		c9.19,6.74,18.27,7.05,27.49,0.06c3.39-2.57,7.05-2.26,11.04-0.93c10.06,3.35,20.17,6.57,30.41,9.29
		c3.15,0.84,7.12,0.75,10.13-0.41c14.15-5.45,28.1-11.42,42.55-17.39c9.71,17.88,19.68,35.24,9.16,56.61
		c4.95,0.46,8.85,0.83,12.97,1.21c-1.44,9.21-7.24,13.8-15.34,16.78c12.22,11.05,25.48,19.13,41.52,23.17
		c-2.49,7.63-8.37,11.13-15.45,13.7c11.81,18.08,21.19,36.89,27.22,58.25c-4.9-1.69-8.92-3.08-13.75-4.75
		c6.57,21.25,16.04,41.61,3.79,63.63c-4.16-7.44-7.9-14.12-12.39-22.13c-7.02,15.28-9.77,31.26-22.2,40.63
		c-8.64-6.11-17-12.02-24.87-17.58c-4.38,5.4-7.84,9.66-12.18,15c-2.21-9.71-8.23-14.03-15.13-16.97
		c-6.8-2.89-14.01-4.77-20.96-7.34c-3.86-1.43-6.44-0.08-7.6,3.37c-3.11,9.2-10.11,13.48-18.78,16.34
		c-6.36,2.1-12.33,5.4-18.71,7.42c-3.07,0.97-6.98,1.09-9.99,0.07c-7.85-2.66-15.3-6.5-23.13-9.22
		c-6.27-2.18-10.43-5.89-13.31-11.88c-3.65-7.58-4.07-7.76-12.13-5.21c-7.04,2.22-13.96,4.99-20.67,8.08
		c-5.79,2.66-10.29,6.91-12,15.27c-4.29-5.16-7.79-9.36-11.72-14.1c-8.93,3.43-17.54,8.97-24.58,17.36
		c-13.16-10.13-16.23-25.52-22.03-39.36C40.07,222.79,39.5,222.56,38.93,222.33z M152.7,143.09c0.34,0.3,0.67,0.6,1.01,0.9
		c-5.43,8.21-10.6,16.62-16.37,24.58c-5.4,7.45-9,15.44-10.76,24.47c-3.5,18.01-5.82,11.9,7.91,23.52c2.03,1.71,4.14,3.32,6.24,4.95
		c4.1,3.2,8.55,4.03,13.44,2c7.83-3.25,15.72-6.39,23.51-9.75c5.57-2.4,6.21-6.46,1.66-10.68c-7.01-6.49-14.19-12.81-21.28-19.21
		c-2.98-2.69-5.92-5.42-9.17-8.4c4.07-3.21,7.81-5.9,11.24-8.94c2.51-2.23,4.91-2.63,7.62-0.79c11.55,7.84,22.96,8.47,34.62,0.02
		c1.45-1.05,4.84-1.08,6.36-0.08c4.34,2.84,8.18,6.45,12.59,10.05c-9.29,8.3-18.14,16.15-26.91,24.09
		c-1.95,1.76-4.04,3.59-5.32,5.82c-1.88,3.3-1.77,6.22,2.72,7.92c7.93,3,15.72,6.39,23.52,9.7c5.23,2.22,10,1.65,14.42-1.9
		c4.69-3.77,9.43-7.48,13.97-11.43c1.2-1.05,2.71-3.11,2.41-4.29c-2.39-9.72-3.84-20-8.18-28.83
		c-5.35-10.86-13.23-20.46-19.98-30.63c-0.64-0.96-1.04-2.08-1.56-3.12c0.29-0.15,0.58-0.3,0.87-0.45
		c8.65,9.07,17.29,18.15,26.2,27.5c6.54-5.79,12.84-11.36,19.14-16.93c0.32,0.33,0.63,0.66,0.95,0.99
		c-3.35,4.95-6.16,10.4-10.16,14.75c-6.74,7.34-4.85,14.18-0.23,21.69c17.67-19.24,25.77-41.36,22.2-67.38
		c-1.58,3.87-2.58,7.94-4.02,11.84c-0.69,1.87-1.87,4.38-3.43,4.97c-9.14,3.41-18.46,6.34-27.72,9.43
		c-0.31-0.44-0.63-0.88-0.94-1.32c10.86-3.81,17.4-11.05,20.19-22.07c1.94-7.67,2.44-7.79-3.53-10.94
		c-6.24,4.16-11.45,8.96-17.59,11.41c-8.48,3.38-17.66,5-26.51,7.36c1.31-4.35,3.39-9.61,4.42-15.07
		c1.4-7.38,4.87-11.66,12.56-13.48c7.5-1.77,9.88-8,7.22-15.33c-1.64-4.53-3.28-9.06-4.91-13.59c0.47-0.29,0.93-0.58,1.4-0.87
		c4.22,4.91,8.68,9.63,12.61,14.76c5.97,7.82,5.82,7.94,14.98,3.84c0.3-0.13,0.53-0.43,1.13-0.94c-5.3-15.99-16.2-28.32-28.14-40.34
		c1.05-0.12,1.47-0.31,1.67-0.18c20.23,13.59,36.16,30.7,43.25,54.59c6.8,22.9,7.81,46.33,4.81,69.92c-0.47,3.68-2,7.59-4.15,10.6
		c-4.61,6.43-9.95,12.34-15.41,18.99c10.57-3.61,19.31-9.33,27.68-15.84c3.7-2.88,5.09-6.32,5.3-10.9
		c1.02-23.04-2.51-45.5-8.14-67.72c-1.32-5.22-2.59-10.45-3.88-15.68c1.76,1.17,2.72,2.62,3.38,4.19
		c3.81,9.13,7.81,18.19,11.27,27.46c7.84,20.99,13.37,42.49,13.53,65.1c0.02,3.26-0.63,5.64-3.68,7.51
		c-17.11,10.51-34.91,19.41-54.54,24.24c-1.38,0.34-2.72,0.86-4.43,1.4c22.99,8.45,41.81-0.44,60.19-12.46
		c-3.28,10.21-11.65,16.1-18.74,23.5c5.94,4.24,11.5,8.2,18.2,12.98c3.24-7.51,6.56-14.29,9.1-21.35
		c2.58-7.18,4.37-14.64,6.65-22.46c5.39,4.83,10.19,9.13,15.86,14.22c-1.1-21.34-9.56-38.88-19.46-57.08
		c6.51,2.42,12.02,4.46,18.46,6.85c-7.67-19.66-17.85-36.73-30.66-53.28c6.43,0,11.61,0,16.8,0c-17.78-9.33-33.14-21-46.1-37.3
		c4.41,0.44,7.71,1,11.03,1.04c3.07,0.04,6.15-0.47,9.22-0.74c-15.75-4.87-28.98-12.57-39.63-25.4c3.96-1.43,7.27-2.63,11.77-4.26
		c-19.5-6.24-37.82-11.63-55.76-18.05c-8.55-3.06-16.26-3.8-24.13,0.97c-5.01,3.04-9.99,2.91-14.98-0.1
		c-7.73-4.66-15.6-4.81-23.6-0.7c-0.46,0.24-1.01,0.31-1.52,0.47c-17.76,5.76-35.52,11.51-54.1,17.54c4.14,1.54,7.49,2.8,12.43,4.64
		c-7.05,5.56-12.71,10.97-19.26,14.91c-6.61,3.97-14.09,6.48-22.24,10.08c7.28,0,13.62,0,20.78,0
		c-12.89,15.78-28.02,27.54-45.87,36.19c2.77,0.82,5.33,1.27,7.9,1.32c2.56,0.05,5.13-0.32,8.87-0.59
		c-12.88,16.66-23.06,33.61-30.59,53.15c6.33-2.29,11.78-4.27,17.8-6.45c-17.48,38.82-20.43,48.14-17.67,55.7
		c4.88-4.36,9.71-8.68,15.12-13.52c3.59,15.64,6.85,30.62,16.22,43.5c5.91-4.21,11.47-8.17,17.47-12.44
		c-8.74-6.52-15.73-13.62-19.54-24.43c23.14,17.52,47.06,20.15,60.74,13.36c-0.85-0.3-1.44-0.58-2.06-0.72
		c-20.43-4.69-38.88-13.83-56.51-24.89c-3.07-1.93-4.21-4.07-4.06-7.76c0.86-21.22,4.98-41.79,12.36-61.64
		c4.75-12.78,10.24-25.28,15.39-37.91c0.45,0.17,0.9,0.34,1.35,0.51c-0.53,2-1.03,4.01-1.58,6.01
		c-7.32,26.36-12.76,52.99-11.11,80.56c0.17,2.88,1.36,6.64,3.43,8.3c6.73,5.43,14.04,10.15,21.25,14.97
		c1.88,1.26,4.18,1.9,6.29,2.82c-3.3-5.07-6.76-9.58-10.72-13.6c-5.33-5.41-7.45-11.97-7.55-19.24c-0.17-12.54-0.6-25.12,0.11-37.63
		c1.19-20.86,6.84-40.37,19.99-57.19c8.53-10.92,18.5-20.15,30.38-27.29c-5.29,6.53-11.29,12.48-16.14,19.25
		c-4.95,6.9-8.79,14.6-13.33,22.33c2.88,1.17,4.42,1.61,5.77,2.38c4.61,2.64,7.23,1.16,10.12-3.19c4.01-6.05,9.15-11.36,13.81-16.99
		c0.48,0.33,0.95,0.66,1.43,0.99c-1.7,4.77-3.54,9.49-5.07,14.32c-2.14,6.77,0.01,11.3,6.52,14.12c2.1,0.91,4.41,1.38,6.43,2.42
		c1.65,0.85,3.85,1.96,4.36,3.45c2.71,7.95,4.96,16.05,7.06,23.07c-8.74-2.31-17.66-4.11-26.14-7.13c-4.62-1.64-8.6-5.23-12.69-8.18
		c-1.63-1.18-2.77-3.03-4.72-5.24c-2.16,2.84-5.79,5.67-5.32,7.34c2.31,8.13,3.2,17.32,11.78,22.22c3.17,1.81,6.29,3.72,9.44,5.58
		c-8.86-1.76-17.44-3.95-25.61-7.19c-2.76-1.1-5-4.59-6.48-7.5c-1.7-3.34-2.29-7.24-3.67-11.94c-4.78,23.91,6.39,56.78,22.46,68.17
		c4.96-7.05,5.11-13.83-0.51-20.84c-4.02-5.02-7.33-10.62-10.95-15.97c0.28-0.25,0.56-0.49,0.84-0.74
		c6.62,5.87,13.24,11.74,20.09,17.82C135.68,161,144.19,152.05,152.7,143.09z M149.27,232.65c2.17,7.69,6.61,11.65,13.04,14.05
		c6.28,2.34,12.19,5.7,18.5,7.93c2.65,0.93,6.22,0.91,8.84-0.08c7.26-2.75,14.11-6.56,21.35-9.35c5.84-2.25,7.87-6.91,10.09-12.52
		c-9.83-3.59-19.14-7.46-28.75-10.29c-4.22-1.24-9.38-1.47-13.56-0.26C168.83,225.02,159.21,229.03,149.27,232.65z M157,176.33
		c16.66,0.5,18.54,17.16,28.43,25.48c3.14-4.32,6.6-8.58,9.51-13.18c4.14-6.54,9.1-11.64,17.29-12.44c0.2-0.02,0.34-0.52,0.5-0.81
		c-6.31-5.98-6.69-6.61-13.45-2.53c-10.08,6.07-19.28,5.39-29.17-0.32C163.65,168.81,162.23,169.68,157,176.33z M81.26,25.04
		c-7.58,12.94-13.16,25.78-5.97,42c2.24-7.8,4.29-14.27,5.9-20.84c0.91-3.74,2.73-5.04,6.41-4.08c8.35,2.16,15.67-1.11,24.41-4.37
		C100.92,33.17,91.07,29.1,81.26,25.04z M289.8,24.67c-10.86,4.51-21.21,8.8-31.55,13.08c0.02,0.67,0.04,1.34,0.05,2.02
		c9.58,1.11,19.15,2.22,29.7,3.44c1.94,6.53,4.34,14.65,6.88,23.22C302.84,51,294.79,38.43,289.8,24.67z M123.35,108.29
		c3,9.56,10.64,14.46,21.79,14.32C143.07,113.48,139.46,111.06,123.35,108.29z M246.85,108.4c-12.61,2.35-21.06,4.37-20.83,14.2
		C236.62,122.33,243.71,117.62,246.85,108.4z"/>
	<path d="M740.69,125.98c9.97,0,19.52-0.17,29.06,0.17c1.61,0.06,3.89,2.03,4.58,3.65c7.49,17.74,14.72,35.58,22.03,53.4
		c0.87,2.11,1.78,4.21,3.2,7.57c1.19-2.5,2.01-4.06,2.7-5.68c7.69-18.23,15.44-36.43,22.97-54.73c1.33-3.22,2.85-4.62,6.55-4.49
		c8.83,0.32,17.67,0.1,26.97,0.1c0,30.33,0,60.44,0,90.86c-7.03,0-14.03,0-21.58,0c0-19.16,0-38.35,0-57.54
		c-0.33-0.07-0.66-0.15-0.99-0.22c-0.8,1.64-1.67,3.25-2.37,4.93c-6.76,16.13-13.64,32.21-20.1,48.46c-1.53,3.84-3.51,5.3-7.4,4.71
		c-1.21-0.18-2.47-0.03-3.71-0.03c-14.94,0-14.94,0-20.69-14.04c-5.36-13.07-10.74-26.14-16.12-39.21c-0.66-1.6-1.39-3.17-3.03-4.64
		c0,19.07,0,38.14,0,57.55c-7.62,0-14.62,0-22.05,0C740.69,186.81,740.69,156.69,740.69,125.98z"/>
	<path d="M499.67,190.33c0-22.33,0-43.06,0-64.06c7.73,0,14.76,0,22.21,0c0,30.04,0,60.15,0,90.86c-9.17,0-18.32,0.18-27.45-0.17
		c-1.61-0.06-3.51-2.04-4.64-3.6c-12.79-17.6-25.45-35.29-38.16-52.95c-1.01-1.4-2.11-2.73-4.17-5.38c0,21.5,0,41.5,0,61.8
		c-7.75,0-14.77,0-22.25,0c0-29.99,0-60.11,0-90.85c8.93,0,17.9-0.16,26.85,0.16c1.44,0.05,3.14,1.95,4.17,3.39
		c13.15,18.42,26.2,36.92,39.29,55.39C496.5,186.32,497.59,187.63,499.67,190.33z"/>
	<path d="M639.63,216.75c0-30.63,0-60.83,0-91.32c28.13,0,55.99,0,84.14,0c0,6.43,0,12.54,0,19.24c-19.74,0-39.46,0-59.6,0
		c0,5.93,0,11.31,0,17.33c19.49,0,39.03,0,59.09,0c0,6.14,0,11.66,0,17.9c-19.6,0-39.27,0-59.2,0c0,6.09,0,11.47,0,17.46
		c20.03,0,39.76,0,59.82,0c0,6.72,0,12.84,0,19.39C695.97,216.75,667.96,216.75,639.63,216.75z"/>
	<path d="M602.11,197.11c0-9.49,0-18.11,0-27.04c7.07,0,13.71,0,20.73,0c0,15.52,0,30.96,0,47.07c-3.3,0-6.6,0.03-9.9,0
		c-15.56-0.16-31.2,0.58-46.66-0.73c-18.93-1.6-26.5-9.38-29.56-28.09c-2.07-12.64-1.92-25.41,0.87-37.98
		c3.14-14.2,11.35-22.47,25.87-23.2c19.55-0.98,39.18-0.24,59.17-0.24c0,5.68,0,11.95,0,18.84c-1.78,0.08-3.64,0.24-5.5,0.24
		c-13.44,0.02-26.89-0.01-40.33,0.02c-10.79,0.03-15.25,3.26-16.33,13.81c-0.83,8.18-0.66,16.59,0.18,24.78
		c0.9,8.79,5.52,12.35,14.25,12.48C583.7,197.22,592.51,197.11,602.11,197.11z"/>
	<path d="M985.05,217.14c-7.86,0-14.93,0.11-21.99-0.1c-1.22-0.04-2.45-1.37-3.58-2.22c-0.37-0.28-0.54-0.92-0.66-1.42
		c-2.88-12.09-10.25-16.15-22.58-14.56c-9.58,1.24-19.44,0.35-29.17,0.19c-3.01-0.05-5.23,0.53-5.97,3.7
		c-2.91,12.43-10.7,16.9-23.03,14.49c-2.66-0.52-5.51-0.08-8.83-0.08c0.89-2.09,1.43-3.55,2.11-4.94
		c13.42-27.28,26.9-54.53,40.21-81.87c1.6-3.29,3.43-4.67,7.17-4.45c7.21,0.44,15.92-2.02,21.26,1.23
		c5.12,3.12,6.78,11.93,9.91,18.28c10.94,22.2,21.85,44.41,32.77,66.61C983.35,213.42,983.99,214.85,985.05,217.14z M927.3,147.35
		c-5.52,11.74-10.46,22.21-15.47,32.87c10.9,0,20.76,0,31.2,0C937.77,169.23,932.85,158.93,927.3,147.35z"/>
	<path d="M1030.12,216.96c-8.5,0-16.08,0-24.29,0c0-23.6,0-47.02,0-71.13c-11.12,0-21.63,0-32.47,0c0-6.79,0-12.89,0-19.43
		c29.51,0,59.09,0,89.27,0c0,5.54,0.21,11-0.18,16.42c-0.07,1.04-2.45,2.68-3.82,2.73c-7.42,0.27-14.86,0.13-22.29,0.13
		c-1.89,0-3.79,0-6.22,0C1030.12,169.72,1030.12,193.16,1030.12,216.96z"/>
	<path d="M407.39,216.92c-8.04,0-15.74,0-23.74,0c0-30.19,0-60.16,0-90.53c7.76,0,15.58,0,23.74,0
		C407.39,156.41,407.39,186.37,407.39,216.92z"/>
	<path d="M831.62,63.3c0,13.63,0,26.51,0,39.78c-3.06,0-5.95,0-9.33,0c0-7.81,0-15.7,0-23.58c-0.42-0.12-0.85-0.24-1.27-0.37
		c-2.82,6.62-5.8,13.18-8.39,19.89c-1.23,3.19-2.74,4.51-6.44,4.65c-4.66,0.17-6.92-1.31-8.42-5.67c-2.21-6.41-5.1-12.58-8.71-18.65
		c0,7.82,0,15.64,0,23.79c-3.38,0-6.26,0-9.51,0c0-13.14,0-26.13,0-39.83c3.91,0,7.78-0.32,11.54,0.16c1.4,0.18,3.11,1.97,3.76,3.44
		c3.55,8.04,6.82,16.21,10.59,25.32c3.61-8.43,7.19-15.72,9.82-23.34c1.66-4.83,4.32-6.23,8.97-5.63
		C826.45,63.54,828.75,63.3,831.62,63.3z"/>
	<path d="M687.26,103.17c0-13.27,0-26.26,0-39.22c10.05,0,19.88-0.33,29.69,0.12c5.97,0.27,9.9,4.2,10.53,10.12
		c0.63,5.9,0.89,11.99,0.14,17.85c-0.92,7.14-4.73,10.56-12.17,11C706.3,103.58,697.1,103.17,687.26,103.17z M697.77,95.22
		c6.71-1.5,13.75,2.82,18.86-3.37c2.55-3.09,2.06-15.57-0.64-17.79c-5.54-4.54-11.99-1.48-18.21-2.24
		C697.77,79.82,697.77,87.01,697.77,95.22z"/>
	<path d="M735.06,103.19c0-13.3,0-26.31,0-39.68c12.27,0,24.35,0,36.74,0c0,2.58,0,4.98,0,7.95c-8.58,0-17.16,0-26.07,0
		c0,2.74,0,4.93,0,7.72c8.6,0,17.16,0,25.96,0c0,2.65,0,4.7,0,7.49c-8.53,0-17.08,0-25.96,0c0,3.07,0,5.42,0,8.23
		c8.67,0,17.1,0,25.94,0c0,2.96,0,5.47,0,8.29C759.66,103.19,747.69,103.19,735.06,103.19z"/>
	<path d="M590.47,103.48c-2.67,0-4.45-0.17-6.19,0.04c-3.22,0.38-5.48-0.48-6.39-3.89c-0.8-2.99-2.8-4.1-5.94-3.87
		c-3.52,0.26-7.09,0.26-10.61,0.01c-4.72-0.34-8.63,0.08-10.41,5.53c-0.36,1.11-2.97,1.81-4.65,2.1c-2.05,0.36-4.21,0.08-7.2,0.08
		c4.46-9.04,8.66-17.53,12.86-26.02c1.41-2.85,3.16-5.58,4.19-8.56c1.56-4.51,4.25-5.93,9.06-5.8c4.12,0.12,6.25,1.29,7.99,5.02
		C578.62,79.77,584.45,91.24,590.47,103.48z M557.96,87.33c4.99,0,9.1,0,13.95,0c-2.37-4.91-4.44-9.19-7.03-14.57
		C562.25,78.3,560.25,82.52,557.96,87.33z"/>
	<path d="M681.77,103.31c-5.79,0.07-11.59,2.18-13.64-5.59c-0.24-0.9-2.48-1.75-3.82-1.81c-5.3-0.21-10.61-0.21-15.91,0
		c-1.35,0.05-3.61,0.88-3.85,1.78c-2.11,7.72-8.04,5.6-14.08,5.76c4.79-9.69,9.3-18.82,13.82-27.95c0.94-1.9,1.87-3.8,2.82-5.7
		c3.3-6.6,5.93-7.93,13.23-6.41c1,0.21,2.19,1.12,2.65,2.03C669.22,77.85,675.36,90.34,681.77,103.31z M656.26,72.78
		c-2.62,5.48-4.68,9.78-7.02,14.66c4.94,0,9.05,0,14.06,0C660.98,82.61,658.91,78.31,656.26,72.78z"/>
	<path d="M854.51,103.48c6.58-13.24,12.64-25.58,18.86-37.85c1.68-3.31,12.03-3.57,13.7-0.28c6.31,12.41,12.4,24.92,18.83,37.91
		c-5.76,0.19-11.43,2.16-13.58-5.47c-0.26-0.94-2.44-1.79-3.78-1.88c-3.87-0.25-7.79,0.1-11.66-0.15c-4.7-0.3-8.64,0.03-10.42,5.51
		c-0.36,1.12-2.96,1.82-4.64,2.12C859.76,103.75,857.6,103.48,854.51,103.48z M873.4,87.44c4.97,0,9.08,0,14.05,0
		c-2.35-4.88-4.41-9.18-7.04-14.65C877.76,78.31,875.69,82.63,873.4,87.44z"/>
	<path d="M626.16,63.62c0,2.61,0,5.01,0,8.15c-5.85,0-11.62-0.05-17.4,0.01c-6.03,0.07-7.92,1.76-8.6,7.68
		c-0.22,1.92-0.2,3.89-0.13,5.83c0.27,7.79,2.21,9.69,9.88,9.72c5.28,0.02,10.55,0,16.16,0c0,2.82,0,5.22,0,8.92
		c-9.13-0.55-18.42-0.66-27.57-1.84c-4.74-0.61-7.49-4.86-7.99-9.54c-0.57-5.39-0.9-10.94-0.29-16.3
		c0.95-8.35,4.34-11.82,12.5-12.49C610.41,63.13,618.18,63.62,626.16,63.62z"/>
	<path d="M850.16,103.35c-3.39,0-6.36,0-9.77,0c0-13.22,0-26.32,0-39.74c3.15,0,6.26,0,9.77,0
		C850.16,76.64,850.16,89.75,850.16,103.35z"/>
</g>
</svg>
