<?xml version="1.0" encoding="utf-8"?>
<!-- Generator: Adobe Illustrator 23.0.3, SVG Export Plug-In . SVG Version: 6.00 Build 0)  -->
<svg version="1.1" id="Capa_1" xmlns="http://www.w3.org/2000/svg" xmlns:xlink="http://www.w3.org/1999/xlink" x="0px" y="0px"
	 viewBox="0 0 1080 1080" style="enable-background:new 0 0 1080 1080;" xml:space="preserve">
<g>
	<path d="M811.3,916.84c-2.66-20.94-15.54-32.37-30.6-41.86c-28.22-17.78-59.86-26.66-91.93-34.1c-2.58-0.6-6.94,2.07-8.96,4.49
		c-3.31,3.97-6.12,8.72-7.83,13.6c-7.99,22.82-24.09,35.39-46.85,43.07c-26.36,8.88-51.53,21.26-77.47,31.45
		c-4.55,1.79-11.02,1.92-15.52,0.12c-34.14-13.63-68.08-27.78-101.89-42.22c-4.08-1.74-7.95-5.62-10.28-9.49
		c-7.11-11.81-13.15-24.27-20.25-36.08c-1.53-2.55-6.2-5.42-8.69-4.87c-30.54,6.76-60.6,15.24-87.79,31.33
		c-16.98,10.05-32.42,21.69-35.08,44.6c-17-10.5-29.71-23.31-34.18-43.72c-32.03,13.83-60.87,30.07-82.13,58.23
		c-20.03-16.03-33.93-36.62-43.95-59.47c-9.96-22.73-17.81-46.38-26.48-69.36c-11.37,8.16-23.6,28.6-40.44,68.88
		c-9.83-14.56-15.81-29.75-18.51-46.17c-5.68-34.62,1.34-68.04,10.96-100.96c5.6-19.14,12.79-37.82,19.66-57.83
		c-14.84,5.67-29.36,11.22-45.67,17.46c19.48-67.39,48.8-128.58,87.56-186.42C71.23,491.39,54.44,478,44.04,454.8
		c51.87-11.26,94.29-38.42,133.82-74.22c-27.73-7.88-45.31-24.33-50.15-53.37c13-0.64,25.57-1.26,39.54-1.95
		c-3.42-14.75-5.69-28.31-9.79-41.29c-5.38-17.03-4.37-33.31,0.99-50.05c9.96-31.06,23.36-60.49,39.76-89.81
		c18.45,7.7,36.5,15.24,54.55,22.76c30.3,12.62,60.57,25.34,90.99,37.68c3.22,1.31,7.67,1.27,11.06,0.23
		c39.84-12.24,79.55-24.91,119.42-37.07c3.46-1.05,8.24-0.28,11.62,1.32c16.02,7.61,31.63,16.1,47.72,23.54
		c3.45,1.6,8.95,1.48,12.43-0.14c16.08-7.48,31.67-15.98,47.69-23.58c3.37-1.6,8.2-2.17,11.71-1.1
		c39.23,11.97,78.29,24.52,117.54,36.42c4.47,1.36,10.37,1.12,14.69-0.64c47.67-19.42,95.15-39.29,143.6-59.42
		c19.09,35.84,38.67,71.52,43.91,112.04c1.91,14.8-4.75,30.75-7.75,46.13c-1.36,7.01-3.31,13.91-5.48,22.86
		c13.69,0.73,26.53,1.42,39.84,2.13c-5.04,28.56-22.16,45.47-50.59,53.28c39.78,35.18,82.03,62.35,133.99,74.23
		c-9.78,22.83-26.59,36.43-50.78,42.78c38.71,57.64,67.86,118.9,87.63,186.38c-15.73-6.01-30.22-11.54-46.32-17.68
		c5.12,13.84,9.99,26.17,14.27,38.7c11.95,35.02,20.12,70.7,18.48,108.1c-0.82,18.72-9.51,44.24-20.53,57.87
		c-9.87-25.29-21.21-49.42-39.52-69.46c-9.16,24.12-17.23,47.97-27.23,70.98c-10,23-24.29,43.38-44.38,59.76
		c-20.72-28.31-49.52-44.76-81.27-58.69C840.96,893.07,828.89,906.12,811.3,916.84z M438.03,551c0.93,0.97,1.85,1.94,2.78,2.91
		c-23.19,35.01-46.41,70-69.52,105.07c-2.87,4.35-6.24,8.82-7.5,13.72c-6.68,26.03-12.91,52.17-18.82,78.38
		c-0.61,2.7,0.96,7.21,3.09,8.99c16.9,14.12,34.06,27.93,51.38,41.53c12.92,10.15,27.1,12.35,42.56,5.83
		c26.02-10.97,52.16-21.62,78.22-32.49c11.86-4.95,14.3-20.83,4.59-29.66c-11.68-10.62-23.42-21.16-35.14-31.73
		c-21.39-19.29-42.78-38.58-64.78-58.41c15.16-12.08,29.38-23.68,44-34.75c1.79-1.36,6.07-0.76,8.56,0.36
		c18.86,8.48,37.47,17.52,56.41,25.82c3.33,1.46,8.39,1.48,11.71,0.03c16.23-7.07,32.53-14.17,48.04-22.67
		c10.05-5.51,17.11-5.2,25.67,2.88c10.82,10.21,23.17,18.79,35.16,28.31c-31.61,28.53-61.7,56.54-92.85,83.32
		c-10.78,9.27-15.04,18.88-11.57,32.78c29.09,12.09,58.46,24.37,87.9,36.49c15.39,6.34,29.71,3.78,42.57-6.4
		c16.76-13.25,33.47-26.58,49.7-40.46c2.67-2.28,4.48-7.92,3.76-11.4c-3.89-18.92-8.59-37.67-13.22-56.42
		c-2.26-9.16-3.1-19.34-7.83-27.08c-13.7-22.39-29.12-43.72-43.72-65.56c-10.95-16.38-21.67-32.9-32.5-49.36
		c0.95-0.84,1.91-1.69,2.86-2.53c28.22,29.82,56.45,59.65,85.02,89.84c24.42-21.95,47-42.24,69.58-62.53
		c0.29,2.16-0.55,3.4-1.39,4.64c-16.44,24.18-32.98,48.3-49.23,72.61c-2.2,3.29-4.96,8.12-4.04,11.23
		c3.94,13.4,9.16,26.42,14.32,40.72c58.9-63.61,84.84-136.47,72.6-224.47c-5.42,18.14-10.5,33.86-14.71,49.82
		c-1.88,7.12-5.61,11.45-12.34,13.67c-26.81,8.85-53.6,17.75-80.43,26.55c-4.79,1.57-9.7,2.76-14.56,4.12
		c14.18-10.05,29.23-17.97,43.78-26.71c4.79-2.88,10.01-7.17,12.09-12.07c7.55-17.76,13.94-36.01,20.46-54.19
		c0.69-1.92,0.21-5.43-1.14-6.71c-6.08-5.74-12.67-10.95-19.26-16.5c-2.63,3.36-4.5,5.65-6.26,8.01
		c-17.31,23.22-40.33,36.54-69.26,38.01c-16.39,0.83-30.55,6.29-43.99,15.01c-5.46,3.55-11.4,6.37-18.76,10.42
		c8.62-28.7,16.39-55.05,24.6-81.26c0.9-2.88,3.83-6.14,6.6-7.25c9.08-3.61,18.55-6.23,27.82-9.38
		c15.79-5.36,28.15-25.79,23.35-39.48c-5.86-16.72-12.45-33.18-18.7-49.77c-0.81-2.14-1.45-4.34-2.98-8.99
		c27.04,22.23,46.31,47.35,62.91,74.97c12.26-4.47,23.82-8.69,36.08-13.16c-20.23-59.96-61.58-102.97-105.57-144.36
		c17.41,11.23,34.69,22.54,50.59,35.54c51.52,42.11,91.47,93.12,108.99,158.08c20.01,74.16,22.02,149.97,12.43,226.06
		c-0.67,5.3-3.29,10.78-6.34,15.28c-7.92,11.67-15.9,23.42-25.12,34.06c-10.89,12.57-23.09,24.01-34.71,35.92
		c0.46,0.17,1.15,0.7,1.59,0.54c38.08-14.01,72.14-34.67,101.98-62.16c2.19-2.02,3.81-5.44,4.25-8.41
		c1.1-7.46,1.59-15.04,1.93-22.59c3.07-68.58-8-135.53-23.95-201.84c-6.01-24.98-12.94-49.74-19.45-74.6
		c9.16,17.06,17.77,34.35,25.28,52.1c37.95,89.64,69.43,180.88,69.18,280.06c-0.02,7.45-2.93,10.51-8.09,13.77
		c-61.92,39.09-126.87,71.06-201.88,85.06c11.01,1.66,19.73,2.98,28.46,4.29c14.83,2.22,29.78,6.81,44.48,6.13
		c27.37-1.27,53.74-9.42,78.05-21.95c19.46-10.03,37.56-22.71,54.69-33.25c-6.55,22.67-23.76,43.94-64.29,78.3
		c18.45,13.16,37.18,26.52,56.32,40.18c14.09-18.29,23.99-40.85,31.49-64.32c7.52-23.52,13.39-47.57,20.61-73.67
		c17.44,16.01,34.3,31.49,51.39,47.17c-3.33-66.05-29.47-124.6-62.69-182.99c20.66,7.88,39.15,14.94,59.72,22.78
		c-25.05-62.25-56.45-118.16-98.46-170.05c11.04,0.86,20.1,2.19,29.14,2.08c8.93-0.11,17.84-1.66,26.76-2.59
		c0.02-1.07,0.04-2.14,0.06-3.21c-29.31-11.48-55.51-28.21-80.32-47.19c-25.03-19.16-47.18-41.23-68.41-67.69
		c13.36,1.56,24.34,2.83,35.32,4.12c11.59,1.36,22.57-0.46,35.19-5.95c-54.73-10.46-97.28-37.1-132.14-77.88
		c12.7-4.15,24.61-8.05,38.2-12.5c-3.05-1.53-3.88-2.1-4.8-2.39c-68.68-22.14-137.35-44.31-206.11-66.21
		c-3.34-1.06-7.81-0.64-11.13,0.66c-16.18,6.35-32.05,13.52-48.28,19.74c-3.73,1.43-8.94,1.48-12.66,0.06
		c-16.24-6.2-32.08-13.46-48.31-19.67c-3.79-1.45-8.94-1.43-12.85-0.17c-54.33,17.5-108.54,35.39-162.82,53.05
		c-14.59,4.75-29.33,9.06-44,13.57c0.02,0.75,0.04,1.5,0.05,2.24c11.65,3.81,23.3,7.62,35.59,11.65
		c-34.83,40.89-77.37,67.09-131.31,77.85c23.74,11.68,46.4,2.79,69.76,2.28c-41.77,50.55-90.09,89.81-150.4,115.52
		c19.25,8.8,37.63,2.7,57.02,3.37c-41.54,51.5-72.93,106.95-97.83,169.25c21.11-8.01,39.38-14.95,59.5-22.59
		c-48.53,80.89-66.89,163.44-60.96,181.05c16.21-14.67,33.04-29.9,51.27-46.4c9.77,52.08,22.94,99.29,50.47,139.09
		c19.74-14.05,38.23-27.2,56.93-40.51c-30.17-19.14-52.39-46.22-65.39-80.76c24.18,22.47,52.36,37.85,83.53,47.11
		c18.37,5.46,37.69,11,56.51,10.77c21.65-0.27,43.22-6.89,65.76-10.92c-3.58-0.6-6.38-0.97-9.14-1.55
		c-71.58-14.86-135.54-47.07-196.15-86.68c-2.73-1.78-4.84-7.06-4.56-10.5c2.22-28.11,3.53-56.41,8.05-84.18
		c10.61-65.12,32.35-127.05,58.06-187.6c8.61-20.29,18.34-40.09,28.28-61.69c0.56,2.72,0.94,3.41,0.77,3.94
		c-17.15,54.93-30.17,110.79-37.97,167.82c-5.49,40.14-8.57,80.39-4.8,120.92c0.69,7.45,2.03,14.22,8.64,18.87
		c22.5,15.84,44.62,32.23,67.58,47.38c8.86,5.84,19.56,8.9,28.61,12.87c-17.55-20.36-35.63-40.22-52.25-61.23
		c-5.35-6.76-8.56-16.33-9.8-25.03c-7.2-50.38-6.86-100.93-1.32-151.48c4.49-40.98,11.66-81.19,30.32-118.63
		c30.83-61.86,77.69-108.57,135.56-145.06c2.01-1.27,4.22-2.22,6.33-3.32c-43.87,41.07-84.58,83.92-104.49,143.33
		c12.28,4.41,23.87,8.57,36.02,12.93c17.17-27.88,36.12-53.68,62.7-74.26c-6.94,18.94-13.88,36.3-19.65,54.04
		c-5.98,18.4,2.4,34.97,20.39,42.17c7.31,2.92,14.67,5.9,22.27,7.86c8.83,2.28,13.14,7.21,15.55,16.15
		c6.63,24.57,14.39,48.84,21.76,73.43c-1.49,0.11-2.19,0.38-2.66,0.16c-1.49-0.68-2.96-1.45-4.32-2.35
		c-19.13-12.61-39.33-21.5-62.84-22.79c-24.41-1.34-43.26-14.11-58.29-32.89c-3.03-3.79-6.16-7.49-9.61-11.68
		c-6.6,5.54-12.89,10.28-18.41,15.78c-1.7,1.69-2.51,5.89-1.7,8.24c5.75,16.72,11.24,33.61,18.51,49.68
		c2.97,6.56,9.33,12.52,15.58,16.46c14.88,9.38,30.62,17.39,46.01,25.96c-30.96-7.85-61.03-18.07-91.36-27.46
		c-12.56-3.89-19.67-10.93-22.2-24.12c-2.33-12.18-6.68-23.97-10.26-35.9c-0.56-1.87-1.73-3.56-2.54-5.17
		c-11.77,85.84,13.46,159.36,72.58,222.34c18.3-40.39,18.3-40.39-5.74-75.6c-0.56-0.81-1.15-1.6-1.7-2.42
		c-10.96-16.17-21.92-32.35-32.88-48.52c0.43-0.36,0.86-0.72,1.29-1.09c22.26,19.96,44.52,39.92,69.05,61.92
		C383.11,609.13,410.57,580.06,438.03,551z M655.02,837.6c-28.23-10.97-55.14-22.16-82.57-31.88c-25.13-8.91-50.38-6.83-75.05,3.14
		c-16.39,6.62-32.89,12.97-49.32,19.49c-7.74,3.07-15.43,6.27-23.53,9.57c4.08,7.47,8.01,13.57,10.86,20.13
		c3.5,8.07,9.37,12.64,17.28,16.1c27.04,11.83,53.76,24.35,80.79,36.2c3.38,1.48,8.45,1.86,11.71,0.42
		c29.11-12.8,58.01-26.06,86.89-39.37c2.81-1.29,5.83-3.36,7.38-5.91C644.71,856.86,649.37,847.85,655.02,837.6z M539.69,740.45
		c16.72-23.2,32.34-45.47,48.73-67.16c3.38-4.47,9.21-7.93,14.63-9.84c8.67-3.05,17.93-4.42,28.56-6.87
		c-7.47-6.05-13.57-10.47-19.03-15.58c-4.53-4.23-8.46-4.3-13.96-1.7c-16.89,8-33.92,15.77-51.25,22.73
		c-4.5,1.81-10.95,1.87-15.42,0.07c-17.63-7.12-34.79-15.43-52.25-22.98c-2.65-1.15-6.92-2.03-8.86-0.71
		c-7.7,5.26-14.77,11.43-22.08,17.27c-0.33,1.05-0.66,2.09-0.99,3.14c35.14-4.09,49.04,20.65,64.49,43.62
		C520.81,715.15,530.17,727.32,539.69,740.45z M209.59,176.4c-5.07,10.65-9.44,20.83-14.62,30.57
		c-18.6,34.98-18.9,70.39-3.36,105.28c6.6-23.2,13.88-47.28,20.15-71.61c2.39-9.26,6.41-12.55,15.64-9.81
		c29.03,8.62,55.03-4.09,82.18-13.05C276.81,204.21,244.03,190.65,209.59,176.4z M863.89,228.15c8.44,29.72,16.14,56.82,24.58,86.53
		c3.47-14.84,6.96-27.1,9.05-39.6c1.43-8.52,3.28-18.12,0.81-25.93c-7.76-24.55-17.47-48.48-26.75-73.53
		c-35.67,14.77-68.9,28.54-104.45,43.26C800.44,229.15,830.57,240.06,863.89,228.15z M342.64,439.52
		c5.96,24.53,21.35,37.31,42.81,43.6c9.83,2.88,20.02,4.56,31.07,7.02c-6.55-15.29-10.79-31.51-28.1-37.39
		C373.96,447.84,359.07,444.21,342.64,439.52z M736.74,439.74c-8.2,2.27-14.8,4.09-21.39,5.93c-6.91,1.93-13.82,3.89-20.73,5.83
		c-15.22,4.28-28.43,22.58-27.98,37.87C696.86,483.8,726.87,477.11,736.74,439.74z"/>
</g>
</svg>
